<svg xmlns="http://www.w3.org/2000/svg" version="1.1" xmlns:xlink="http://www.w3.org/1999/xlink" xmlns:svgjs="http://svgjs.dev/svgjs" width="1500" height="935" viewBox="0 0 1500 935"><g transform="matrix(1,0,0,1,-0.9090909090909918,0.3785425101214628)"><svg viewBox="0 0 396 247" data-background-color="#ffffff" preserveAspectRatio="xMidYMid meet" height="935" width="1500" xmlns="http://www.w3.org/2000/svg" xmlns:xlink="http://www.w3.org/1999/xlink"><g id="tight-bounds" transform="matrix(1,0,0,1,0.2400000000000091,-0.09999999999999432)"><svg viewBox="0 0 395.52 247.2" height="247.2" width="395.52"><g><svg></svg></g><g><svg viewBox="0 0 395.52 247.2" height="247.2" width="395.52"><g transform="matrix(1,0,0,1,75.54432,51.892251333794064)"><svg viewBox="0 0 244.43135999999998 143.41549733241186" height="143.41549733241186" width="244.43135999999998"><g><svg viewBox="0 0 244.43135999999998 143.41549733241186" height="143.41549733241186" width="244.43135999999998"><g><svg viewBox="0 0 244.43135999999998 143.41549733241186" height="143.41549733241186" width="244.43135999999998"><g><svg viewBox="0 0 244.43135999999998 143.41549733241186" height="143.41549733241186" width="244.43135999999998"><g id="textblocktransform"><svg viewBox="0 0 244.43135999999998 143.41549733241186" height="143.41549733241186" width="244.43135999999998" id="textblock"><g><svg viewBox="0 0 244.43135999999998 143.41549733241186" height="143.41549733241186" width="244.43135999999998"><g transform="matrix(1,0,0,1,0,0)"><svg width="244.43135999999998" viewBox="1.7 -36.5 72.35 42.45" height="143.41549733241186" data-palette-color="#096a2e"><path d="M26.7 5.95L26.7 5.95 14.5 5.95Q7.95 5.95 4.83 2.55 1.7-0.85 1.7-6.25L1.7-6.25 1.7-20.3Q1.7-23.05 2.5-25.08 3.3-27.1 4.85-28.45L4.85-28.45 11.35-33.9Q12.9-35.2 15.3-35.85 17.7-36.5 20.95-36.5L20.95-36.5 33.15-36.5Q34.35-36.5 34.9-35.95 35.45-35.4 35.45-34.2L35.45-34.2 35.45-28.15Q35.45-27.5 35.27-27.05 35.1-26.6 34.75-26.3L34.75-26.3 28.25-20.9Q28.05-20.7 27.63-20.55 27.2-20.4 26.7-20.4L26.7-20.4 20.55-20.4 20.55-11.95Q20.55-10.9 21.2-10.48 21.85-10.05 23.1-10.05L23.1-10.05 33.15-10.05Q34.35-10.05 34.9-9.5 35.45-8.95 35.45-7.75L35.45-7.75 35.45-1.8Q35.45-1.15 35.27-0.7 35.1-0.25 34.75 0.05L34.75 0.05 28.25 5.45Q28.05 5.65 27.63 5.8 27.2 5.95 26.7 5.95ZM20.95 0L33.15 0Q34.1 0 34.52-0.43 34.95-0.85 34.95-1.8L34.95-1.8 34.95-7.75Q34.95-8.7 34.52-9.13 34.1-9.55 33.15-9.55L33.15-9.55 23.1-9.55Q21.55-9.55 20.8-10.13 20.05-10.7 20.05-11.95L20.05-11.95 20.05-23.85Q20.05-25.1 20.8-25.73 21.55-26.35 23.1-26.35L23.1-26.35 33.15-26.35Q34.1-26.35 34.52-26.78 34.95-27.2 34.95-28.15L34.95-28.15 34.95-34.2Q34.95-35.15 34.52-35.58 34.1-36 33.15-36L33.15-36 20.95-36Q14.7-36 11.68-33.48 8.65-30.95 8.65-25.75L8.65-25.75 8.65-10.2Q8.65-5 11.68-2.5 14.7 0 20.95 0L20.95 0ZM22.05-5L30.4-5 30.4-4.5 22.05-4.5Q17.2-4.5 15.63-6 14.05-7.5 14.05-10.95L14.05-10.95 14.05-24.95Q14.05-28.5 15.65-30 17.25-31.5 22.05-31.5L22.05-31.5 30.4-31.5 30.4-31 22.05-31Q17.65-31 16.1-29.63 14.55-28.25 14.55-24.95L14.55-24.95 14.55-10.95Q14.55-7.7 16.05-6.35 17.55-5 22.05-5L22.05-5ZM56.15 5.95L56.15 5.95 48.05 5.95Q46.85 5.95 46.3 5.4 45.75 4.85 45.75 3.65L45.75 3.65 45.75-20.4 38.9-20.4Q37.7-20.4 37.15-20.95 36.6-21.5 36.6-22.7L36.6-22.7 36.6-28.75Q36.6-29.4 36.77-29.85 36.95-30.3 37.3-30.6L37.3-30.6 43.75-36.05Q44-36.25 44.42-36.38 44.85-36.5 45.35-36.5L45.35-36.5 71.75-36.5Q72.95-36.5 73.5-35.95 74.05-35.4 74.05-34.2L74.05-34.2 74.05-28.15Q74.05-27.5 73.87-27.05 73.7-26.6 73.35-26.3L73.35-26.3 66.85-20.9Q66.65-20.7 66.22-20.55 65.8-20.4 65.3-20.4L65.3-20.4 64.9-20.4 64.9-1.8Q64.9-1.15 64.72-0.7 64.55-0.25 64.2 0.05L64.2 0.05 57.7 5.45Q57.5 5.65 57.07 5.8 56.65 5.95 56.15 5.95ZM54.5 0L62.6 0Q63.55 0 63.97-0.43 64.4-0.85 64.4-1.8L64.4-1.8 64.4-26.35 71.75-26.35Q72.7-26.35 73.12-26.78 73.55-27.2 73.55-28.15L73.55-28.15 73.55-34.2Q73.55-35.15 73.12-35.58 72.7-36 71.75-36L71.75-36 45.35-36Q44.4-36 43.97-35.58 43.55-35.15 43.55-34.2L43.55-34.2 43.55-28.15Q43.55-27.2 43.97-26.78 44.4-26.35 45.35-26.35L45.35-26.35 52.7-26.35 52.7-1.8Q52.7-0.85 53.12-0.43 53.55 0 54.5 0L54.5 0ZM58.8-4.5L58.3-4.5 58.3-31 48.05-31 48.05-31.5 69.05-31.5 69.05-31 58.8-31 58.8-4.5Z" opacity="1" transform="matrix(1,0,0,1,0,0)" fill="#096a2e" class="wordmark-text-0" data-fill-palette-color="primary" id="text-0"></path></svg></g></svg></g></svg></g></svg></g></svg></g></svg></g></svg></g><g><path d="M0 123.6c0-68.262 55.338-123.6 123.6-123.6 33.497 0 63.882 13.325 86.143 34.964l-9.564 0c-20.534-17.756-47.302-28.497-76.579-28.497-64.691 0-117.133 52.442-117.133 117.133 0 64.691 52.442 117.133 117.133 117.133 29.277 0 56.045-10.741 76.579-28.497h9.564c-22.261 21.639-52.646 34.964-86.143 34.964-68.262 0-123.6-55.338-123.6-123.6z" fill="#096a2e" stroke="transparent" data-fill-palette-color="tertiary"></path></g></svg></g><defs></defs></svg><rect width="395.52" height="247.2" fill="none" stroke="none" visibility="hidden"></rect></g></svg></g></svg>